<svg xmlns="http://www.w3.org/2000/svg" width="69" height="24" fill="none"><path stroke="#FAB800" stroke-linecap="round" stroke-linejoin="round" stroke-width="1.627" d="M23.129 12.253C23.129 6.038 18.09 1 11.876 1 6.832 1 2.563 4.319 1.133 8.892c-.091.293-.137.44-.133.623.004.149.05.333.115.466.081.164.207.29.457.54l12.036 12.036c.25.25.376.376.54.457.134.066.318.111.467.114.183.005.33-.04.622-.133 4.573-1.429 7.892-5.698 7.892-10.742Z"/><path stroke="#FAB800" stroke-linecap="round" stroke-linejoin="round" stroke-width="1.627" d="M2.492 9.602c.267-.019.538-.028.81-.028 6.215 0 11.253 5.038 11.253 11.253 0 .272-.01.542-.029.81-.033.467-.05.7-.186.845a.591.591 0 0 1-.46.172c-.197-.02-.377-.2-.736-.559l-11.11-11.11c-.36-.36-.54-.54-.56-.737a.591.591 0 0 1 .173-.46c.144-.136.378-.152.845-.186Z"/><mask id="a" width="41" height="13" x="26.058" y="6.46" fill="#000" maskUnits="userSpaceOnUse"><path fill="#fff" d="M26.058 6.46h41v13h-41z"/><path d="M30.775 7.604c1.156 0 2.166.224 3.03.672a4.632 4.632 0 0 1 2.015 1.905c.48.823.719 1.786.719 2.89s-.24 2.062-.719 2.874c-.468.813-1.14 1.437-2.015 1.875-.864.427-1.874.64-3.03.64h-3.546V7.604h3.546Zm0 9.404c1.27 0 2.244-.344 2.921-1.031.677-.688 1.015-1.656 1.015-2.906 0-1.26-.338-2.244-1.015-2.952-.677-.708-1.65-1.062-2.921-1.062H29.01v7.95h1.765Zm15.323-7.155v8.607h-1.78v-1.015a2.94 2.94 0 0 1-1.11.843 3.517 3.517 0 0 1-1.437.297c-.676 0-1.286-.14-1.827-.422a3.108 3.108 0 0 1-1.265-1.25c-.302-.551-.453-1.218-.453-1.999v-5.06h1.765v4.795c0 .77.192 1.364.578 1.78.385.407.91.61 1.577.61.667 0 1.193-.203 1.578-.61.396-.416.594-1.01.594-1.78V9.853h1.78Zm6.692-.14c.677 0 1.281.14 1.812.422.542.28.964.697 1.265 1.25.302.551.453 1.218.453 1.999v5.076h-1.765v-4.81c0-.771-.192-1.36-.578-1.766-.385-.417-.91-.625-1.577-.625-.667 0-1.198.208-1.593.625-.386.406-.579.995-.579 1.765v4.811h-1.78V9.853h1.78v.985c.292-.355.662-.63 1.11-.828a3.626 3.626 0 0 1 1.452-.297Zm13.69 4.233c0 .323-.02.614-.062.875H59.84c.053.687.308 1.239.766 1.655.458.417 1.02.625 1.687.625.958 0 1.635-.4 2.03-1.202h1.922a3.903 3.903 0 0 1-1.422 1.952c-.677.5-1.52.75-2.53.75-.823 0-1.562-.182-2.218-.547a4.086 4.086 0 0 1-1.531-1.562c-.364-.677-.547-1.458-.547-2.343s.177-1.661.531-2.327a3.843 3.843 0 0 1 1.515-1.563c.657-.364 1.406-.546 2.25-.546.812 0 1.536.177 2.171.53a3.74 3.74 0 0 1 1.484 1.5c.354.636.531 1.37.531 2.203Zm-1.859-.562c-.01-.657-.244-1.182-.703-1.578-.458-.396-1.025-.594-1.702-.594a2.27 2.27 0 0 0-1.578.594c-.437.385-.698.911-.78 1.578h4.763Z"/></mask><path fill="#fff" d="M30.775 7.604c1.156 0 2.166.224 3.03.672a4.632 4.632 0 0 1 2.015 1.905c.48.823.719 1.786.719 2.89s-.24 2.062-.719 2.874c-.468.813-1.14 1.437-2.015 1.875-.864.427-1.874.64-3.03.64h-3.546V7.604h3.546Zm0 9.404c1.27 0 2.244-.344 2.921-1.031.677-.688 1.015-1.656 1.015-2.906 0-1.26-.338-2.244-1.015-2.952-.677-.708-1.65-1.062-2.921-1.062H29.01v7.95h1.765Zm15.323-7.155v8.607h-1.78v-1.015a2.94 2.94 0 0 1-1.11.843 3.517 3.517 0 0 1-1.437.297c-.676 0-1.286-.14-1.827-.422a3.108 3.108 0 0 1-1.265-1.25c-.302-.551-.453-1.218-.453-1.999v-5.06h1.765v4.795c0 .77.192 1.364.578 1.78.385.407.91.61 1.577.61.667 0 1.193-.203 1.578-.61.396-.416.594-1.01.594-1.78V9.853h1.78Zm6.692-.14c.677 0 1.281.14 1.812.422.542.28.964.697 1.265 1.25.302.551.453 1.218.453 1.999v5.076h-1.765v-4.81c0-.771-.192-1.36-.578-1.766-.385-.417-.91-.625-1.577-.625-.667 0-1.198.208-1.593.625-.386.406-.579.995-.579 1.765v4.811h-1.78V9.853h1.78v.985c.292-.355.662-.63 1.11-.828a3.626 3.626 0 0 1 1.452-.297Zm13.69 4.233c0 .323-.02.614-.062.875H59.84c.053.687.308 1.239.766 1.655.458.417 1.02.625 1.687.625.958 0 1.635-.4 2.03-1.202h1.922a3.903 3.903 0 0 1-1.422 1.952c-.677.5-1.52.75-2.53.75-.823 0-1.562-.182-2.218-.547a4.086 4.086 0 0 1-1.531-1.562c-.364-.677-.547-1.458-.547-2.343s.177-1.661.531-2.327a3.843 3.843 0 0 1 1.515-1.563c.657-.364 1.406-.546 2.25-.546.812 0 1.536.177 2.171.53a3.74 3.74 0 0 1 1.484 1.5c.354.636.531 1.37.531 2.203Zm-1.859-.562c-.01-.657-.244-1.182-.703-1.578-.458-.396-1.025-.594-1.702-.594a2.27 2.27 0 0 0-1.578.594c-.437.385-.698.911-.78 1.578h4.763Z"/><path fill="#000" d="m33.805 8.276-.15.289.005.002.145-.291Zm2.015 1.905-.283.16.002.004.281-.164Zm0 5.764-.28-.165-.002.003.282.162Zm-2.015 1.875.144.291h.002l-.146-.291Zm-6.576.64h-.325v.326h.325v-.326Zm0-10.856V7.28h-.325v.325h.325Zm6.467 8.373-.232-.229.232.229Zm-4.686-6.92V8.73h-.326v.326h.326Zm0 7.95h-.326v.326h.326v-.325Zm1.765-9.078c1.114 0 2.07.216 2.88.636l.3-.578c-.919-.476-1.982-.708-3.18-.708v.65Zm2.885.638c.818.409 1.44.999 1.877 1.774l.567-.32a4.957 4.957 0 0 0-2.153-2.036l-.291.582Zm1.88 1.778c.445.766.673 1.67.673 2.726h.651c0-1.152-.25-2.173-.762-3.053l-.563.327Zm.673 2.726c0 1.056-.228 1.955-.673 2.709l.56.33c.514-.87.764-1.887.764-3.039h-.65Zm-.675 2.712c-.435.754-1.058 1.336-1.878 1.746l.29.582c.93-.465 1.65-1.133 2.152-2.003l-.563-.325Zm-1.877 1.745c-.811.4-1.77.607-2.886.607v.65c1.196 0 2.257-.22 3.174-.674l-.288-.583Zm-2.886.607h-3.546v.65h3.546v-.65Zm-3.22.325V7.604h-.651V18.46h.65Zm-.326-10.53h3.546v-.651h-3.546v.65Zm3.546 9.403c1.329 0 2.397-.36 3.153-1.128l-.464-.457c-.598.608-1.477.934-2.689.934v.65Zm3.153-1.128c.753-.765 1.109-1.825 1.109-3.134h-.651c0 1.19-.321 2.067-.922 2.677l.464.457Zm1.109-3.134c0-1.319-.356-2.392-1.106-3.177l-.47.45c.604.632.925 1.526.925 2.727h.65ZM33.93 9.894c-.755-.79-1.825-1.163-3.156-1.163v.651c1.21 0 2.087.336 2.686.962l.47-.45Zm-3.156-1.163H29.01v.651h1.765v-.65Zm-2.09.326v7.95h.65v-7.95h-.65Zm.325 8.276h1.765v-.65H29.01v.65Zm17.088-7.48h.326v-.325h-.326v.325Zm0 8.607v.326h.326v-.326h-.326Zm-1.78 0h-.326v.326h.326v-.326Zm0-1.015h.325v-.933l-.58.73.255.203Zm-1.11.843.132.298.003-.001-.135-.297Zm-3.264-.125-.152.288.002.001.15-.289Zm-1.265-1.25-.286.157.002.004.284-.16Zm-.453-7.06v-.325H37.9v.325h.326Zm1.765 0h.325v-.325h-.325v.325Zm.578 6.577-.24.22.004.004.236-.224Zm3.155 0-.236-.225.236.225Zm.594-6.577v-.325h-.326v.325h.326Zm1.455 0v8.607h.65V9.853h-.65Zm.325 8.282h-1.78v.65h1.78v-.65Zm-1.455.325v-1.015h-.65v1.015h.65Zm-.58-1.218c-.246.31-.573.56-.99.75l.27.593c.5-.227.913-.539 1.23-.938l-.51-.404Zm-.986.749a3.19 3.19 0 0 1-1.306.269v.65a3.84 3.84 0 0 0 1.569-.324l-.263-.595Zm-1.306.269c-.63 0-1.187-.13-1.677-.385l-.3.577c.593.308 1.254.459 1.977.459v-.651Zm-1.675-.384a2.783 2.783 0 0 1-1.134-1.123l-.567.321a3.434 3.434 0 0 0 1.397 1.377l.304-.575Zm-1.132-1.118c-.27-.494-.413-1.104-.413-1.844h-.65c0 .823.158 1.546.492 2.156l.571-.312Zm-.413-1.844v-5.06h-.65v5.06h.65Zm-.325-4.735h1.765v-.651h-1.765v.65Zm1.44-.326v4.796h.65V9.853h-.65Zm0 4.796c0 .823.206 1.506.664 2.002l.478-.442c-.313-.338-.492-.842-.492-1.56h-.65Zm.667 2.005c.458.483 1.076.71 1.813.71v-.65c-.595 0-1.029-.18-1.341-.508l-.472.448Zm1.813.71c.738 0 1.356-.227 1.814-.71l-.472-.448c-.312.329-.746.507-1.342.507v.651Zm1.814-.71c.47-.496.683-1.18.683-2.005h-.65c0 .716-.184 1.219-.505 1.556l.472.449Zm.683-2.005V9.853h-.65v4.796h.65Zm-.325-4.47h1.78v-.651h-1.78v.65Zm10.284-.044-.152.287.002.001.15-.288Zm1.265 1.25-.285.155.285-.156Zm.453 7.075v.326h.326v-.326h-.326Zm-1.765 0h-.325v.326h.325v-.326Zm-.578-6.576-.238.221.002.003.236-.224Zm-3.17 0-.236-.224.236.224Zm-.579 6.576v.326h.326v-.326h-.326Zm-1.78 0h-.326v.326h.326v-.326Zm0-8.607v-.325h-.326v.325h.326Zm1.78 0h.326v-.325h-.326v.325Zm0 .985h-.325v.907l.577-.7-.252-.207Zm1.11-.828-.13-.3-.002.002.131.298Zm1.452.028c.63 0 1.181.13 1.66.384l.304-.575c-.583-.309-1.24-.46-1.964-.46v.651Zm1.662.385c.483.25.858.62 1.13 1.117l.57-.312a3.314 3.314 0 0 0-1.4-1.382l-.3.577Zm1.13 1.117c.27.494.413 1.104.413 1.844h.65c0-.823-.158-1.546-.492-2.156l-.571.312Zm.413 1.844v5.076h.65v-5.076h-.65Zm.325 4.75h-1.765v.652h1.765v-.651Zm-1.44.326v-4.81h-.65v4.81h.65Zm0-4.81c0-.823-.205-1.504-.666-1.99l-.473.448c.31.326.489.822.489 1.541h.65Zm-.664-1.987c-.457-.495-1.076-.73-1.816-.73v.652c.593 0 1.026.182 1.339.52l.477-.442Zm-1.816-.73c-.74 0-1.362.235-1.83.727l.472.448c.325-.341.765-.523 1.358-.523v-.651Zm-1.83.727c-.461.486-.667 1.167-.667 1.99h.65c0-.72.18-1.216.49-1.542l-.473-.448Zm-.667 1.99v4.81h.65v-4.81h-.65Zm.325 4.485h-1.78v.65h1.78v-.65Zm-1.455.325V9.853h-.65v8.607h.65Zm-.325-8.281h1.78v-.651h-1.78v.65Zm1.455-.326v.985h.65v-.985h-.65Zm.577 1.191c.257-.312.585-.558.99-.737l-.264-.595a3.285 3.285 0 0 0-1.229.919l.503.413Zm.987-.736a3.3 3.3 0 0 1 1.323-.27v-.65c-.553 0-1.082.107-1.581.323l.258.597Zm14.95 4.513v.325h.278l.044-.274-.321-.051Zm-6.575 0v-.326h-.352l.027.35.325-.024Zm.765 1.655-.219.241.219-.24Zm3.718-.577v-.326h-.203l-.09.181.293.145Zm1.92 0 .31.101.14-.427h-.45v.325Zm-1.42 1.952.193.262-.194-.262Zm-4.75.203-.163.282.006.003.158-.285Zm-1.53-1.562-.287.154.003.006.284-.16Zm-.016-4.67-.286-.155-.001.002.287.153Zm1.515-1.563-.157-.284-.002.001.16.283Zm4.421-.015.159-.284-.159.284Zm1.484 1.5-.285.156v.002l.285-.159Zm-1.328 1.64v.325h.33l-.004-.33-.326.005Zm-.703-1.578.213-.246-.213.246Zm-3.28 0 .215.244.003-.003-.218-.241Zm-.78 1.578-.324-.04-.045.365h.368v-.325Zm6.297.562c0 .31-.02.583-.059.823l.643.103c.045-.28.067-.59.067-.926h-.651Zm.263.55H59.84v.65h6.577v-.65Zm-6.901.35c.058.76.344 1.392.871 1.871l.438-.481c-.39-.354-.614-.825-.66-1.44l-.649.05Zm.871 1.871c.523.476 1.165.71 1.906.71v-.651c-.592 0-1.075-.183-1.468-.54l-.438.481Zm1.906.71c.525 0 .993-.11 1.392-.346.4-.237.708-.589.93-1.038l-.583-.288c-.174.352-.402.601-.679.765-.278.165-.627.256-1.06.256v.65Zm2.03-1.203h1.922v-.651h-1.921v.65Zm1.613-.427a3.578 3.578 0 0 1-1.307 1.793l.388.522A4.229 4.229 0 0 0 66.555 16l-.618-.203Zm-1.306 1.792c-.61.451-1.382.686-2.337.686v.651c1.065 0 1.98-.264 2.724-.813l-.387-.524Zm-2.337.686c-.773 0-1.457-.17-2.06-.505l-.316.569c.709.393 1.503.587 2.376.587v-.65Zm-2.055-.502a3.761 3.761 0 0 1-1.41-1.44l-.568.319a4.41 4.41 0 0 0 1.651 1.683l.327-.562Zm-1.407-1.435c-.336-.623-.508-1.35-.508-2.189h-.651c0 .93.192 1.766.585 2.497l.573-.308Zm-.508-2.189c0-.841.168-1.563.493-2.175l-.575-.305c-.383.72-.57 1.55-.57 2.48h.652Zm.492-2.173c.336-.625.798-1.1 1.389-1.433l-.32-.567a4.168 4.168 0 0 0-1.642 1.691l.573.309Zm1.387-1.432c.601-.334 1.296-.506 2.09-.506v-.65c-.891 0-1.696.193-2.407.587l.317.569Zm2.09-.506c.764 0 1.432.166 2.014.49l.317-.568c-.69-.384-1.469-.573-2.33-.573v.651Zm2.014.49c.58.324 1.032.78 1.357 1.372l.57-.313a4.065 4.065 0 0 0-1.61-1.627l-.317.568Zm1.358 1.374c.323.58.49 1.258.49 2.044h.65c0-.88-.187-1.67-.572-2.361l-.568.317Zm-.718 1.476c-.012-.74-.281-1.357-.816-1.818l-.425.492c.381.33.58.765.59 1.337l.65-.01Zm-.816-1.818c-.524-.453-1.17-.673-1.915-.673v.65c.608 0 1.098.177 1.49.515l.425-.492Zm-1.915-.673c-.692 0-1.296.225-1.796.678l.436.482c.375-.339.822-.51 1.36-.51v-.65Zm-1.793.675c-.506.446-.797 1.049-.889 1.781l.646.081c.075-.6.304-1.049.673-1.374l-.43-.488Zm-.566 2.147h4.764v-.65h-4.764v.65Z" mask="url(#a)"/></svg>