<svg xmlns="http://www.w3.org/2000/svg" width="102" height="22" fill="none"><path fill="#FAB800" d="M19.753 1.193a.848.848 0 1 0 .441 1.64l2.395-.64-5.39 9.771-4.01-3.385a.855.855 0 0 0-1.356.37l-2.507 7.195-3.485-3.147a.855.855 0 0 0-1.248.11L.177 18.81A.846.846 0 0 0 .332 20a.855.855 0 0 0 1.196-.153l3.852-4.974 3.756 3.392a.855.855 0 0 0 1.379-.35l2.521-7.239 3.856 3.256a.855.855 0 0 0 1.3-.239l5.86-10.624.631 2.345a.853.853 0 0 0 1.647-.44L25.16.63a.853.853 0 0 0-1.043-.6l-4.364 1.164Z"/><path fill="#fff" d="M38.46 10.565a4.694 4.694 0 0 0-.586-1.224 3.746 3.746 0 0 0-.864-.932 3.63 3.63 0 0 0-1.15-.593 4.621 4.621 0 0 0-1.404-.203 4.25 4.25 0 0 0-2.343.669c-.697.445-1.247 1.099-1.653 1.96-.4.856-.6 1.906-.6 3.147 0 1.247.202 2.302.608 3.163.405.861.961 1.515 1.667 1.96.706.446 1.51.669 2.411.669.837 0 1.565-.17 2.186-.51a3.559 3.559 0 0 0 1.45-1.443c.346-.626.518-1.362.518-2.209l.601.113H34.9v-1.915h6.047v1.75c0 1.292-.275 2.414-.826 3.365a5.626 5.626 0 0 1-2.269 2.194c-.961.515-2.063.773-3.305.773-1.392 0-2.614-.32-3.665-.961-1.047-.641-1.863-1.55-2.449-2.727-.586-1.182-.879-2.584-.879-4.207 0-1.226.17-2.328.51-3.304.341-.977.82-1.806 1.436-2.487a6.264 6.264 0 0 1 2.186-1.57c.84-.365 1.76-.548 2.756-.548.831 0 1.605.123 2.321.368a6.259 6.259 0 0 1 1.923 1.044 5.911 5.911 0 0 1 2.156 3.658H38.46Zm5.252 10.524V9.55h2.171v1.833h.12c.21-.621.581-1.11 1.112-1.465a3.181 3.181 0 0 1 1.818-.54 9.604 9.604 0 0 1 .954.052v2.148a4.043 4.043 0 0 0-.48-.082 4.595 4.595 0 0 0-.692-.053c-.53 0-1.004.113-1.42.338a2.512 2.512 0 0 0-1.337 2.261v7.046h-2.246Zm12.565.233c-1.081 0-2.025-.248-2.832-.744-.806-.496-1.432-1.19-1.877-2.08-.446-.892-.669-1.934-.669-3.125 0-1.197.223-2.244.669-3.14.445-.897 1.071-1.593 1.877-2.088.807-.496 1.75-.744 2.832-.744 1.082 0 2.026.248 2.832.744.806.495 1.432 1.191 1.878 2.088.446.896.669 1.943.669 3.14 0 1.191-.223 2.233-.669 3.124-.446.892-1.072 1.585-1.878 2.081-.806.496-1.75.744-2.832.744Zm.008-1.886c.7 0 1.282-.185 1.743-.555.46-.371.8-.864 1.021-1.48a5.887 5.887 0 0 0 .338-2.036 5.87 5.87 0 0 0-.338-2.028c-.22-.621-.56-1.12-1.021-1.495-.461-.375-1.042-.563-1.743-.563-.706 0-1.292.188-1.758.563-.46.376-.804.874-1.029 1.495a5.984 5.984 0 0 0-.33 2.028c0 .741.11 1.42.33 2.036.225.616.568 1.109 1.03 1.48.465.37 1.05.555 1.757.555Zm10.028 1.653L62.917 9.55h2.322l2.26 8.473h.113l2.269-8.473h2.32l2.254 8.436h.113l2.246-8.436h2.321l-3.388 11.54h-2.29l-2.344-8.33h-.173l-2.344 8.33h-2.283ZM86.653 9.55v1.803H80.35V9.55h6.302ZM82.04 6.787h2.246V17.7c0 .436.065.764.195.984.13.216.298.363.504.443.21.075.438.113.683.113.18 0 .338-.012.473-.038l.316-.06.406 1.856c-.13.05-.316.1-.556.15-.24.055-.541.085-.902.09a3.954 3.954 0 0 1-1.652-.315 2.835 2.835 0 0 1-1.24-1.022c-.315-.46-.473-1.04-.473-1.735V6.787Zm9.59 7.451v6.85h-2.245V5.706H91.6v5.724h.143c.27-.62.684-1.114 1.24-1.48.555-.365 1.281-.548 2.178-.548.791 0 1.482.163 2.073.488.596.326 1.057.811 1.382 1.457.33.641.496 1.443.496 2.404v7.339h-2.246v-7.07c0-.847-.218-1.503-.653-1.969-.436-.47-1.042-.706-1.818-.706-.531 0-1.007.113-1.427.338a2.437 2.437 0 0 0-.984.992c-.236.43-.354.951-.354 1.562Z"/></svg>