<svg xmlns="http://www.w3.org/2000/svg" width="91" height="25" fill="none"><path stroke="#FAB800" stroke-linecap="round" stroke-linejoin="round" stroke-width="1.627" d="M11.222 23.745v-9.084c0-.306 0-.46-.032-.605a1.356 1.356 0 0 0-.14-.368c-.073-.13-.175-.244-.378-.472L2.969 4.578c-1.021-1.145-1.532-1.717-1.55-2.204a1.356 1.356 0 0 1 .488-1.098c.375-.31 1.14-.31 2.671-.31h20.037c1.531 0 2.297 0 2.67.31.326.27.507.675.49 1.098-.019.487-.53 1.059-1.55 2.204l-7.703 8.638c-.204.228-.306.342-.378.472a1.36 1.36 0 0 0-.14.368c-.033.146-.033.299-.033.605v7.242c0 .265 0 .398-.042.512m-6.91-14.55h7.157M9.229 4.272h10.736m-7.157 7.182h3.578"/><path fill="#fff" d="M39.368 5.686V7.35h-5.28v3.67h4.117v1.664h-4.117v5.441h-2.04V5.685h7.32ZM50.19 8.263v9.862h-2.04v-1.163a3.367 3.367 0 0 1-1.27.966 4.029 4.029 0 0 1-1.648.34c-.775 0-1.473-.16-2.094-.483a3.56 3.56 0 0 1-1.45-1.432c-.345-.632-.519-1.396-.519-2.29v-5.8h2.023v5.495c0 .883.22 1.563.662 2.04.442.466 1.044.698 1.808.698s1.366-.232 1.808-.698c.453-.477.68-1.157.68-2.04V8.263h2.04Zm7.668-.161c.776 0 1.468.161 2.076.483.62.322 1.104.8 1.45 1.432.346.633.52 1.396.52 2.291v5.817H59.88v-5.513c0-.883-.221-1.557-.663-2.022-.441-.477-1.044-.716-1.807-.716-.764 0-1.373.239-1.826.716-.441.465-.662 1.14-.662 2.022v5.513h-2.04V8.263h2.04v1.128a3.393 3.393 0 0 1 1.27-.949 4.154 4.154 0 0 1 1.665-.34Zm11.624 0c.775 0 1.467.161 2.076.483.62.322 1.103.8 1.45 1.432.346.633.519 1.396.519 2.291v5.817h-2.023v-5.513c0-.883-.22-1.557-.662-2.022-.442-.477-1.044-.716-1.808-.716s-1.372.239-1.826.716c-.441.465-.662 1.14-.662 2.022v5.513h-2.04V8.263h2.04v1.128a3.393 3.393 0 0 1 1.271-.949 4.155 4.155 0 0 1 1.665-.34Zm15.686 4.85c0 .37-.024.704-.072 1.003h-7.535c.06.787.352 1.42.877 1.897.525.477 1.17.716 1.933.716 1.098 0 1.874-.46 2.327-1.378h2.201a4.473 4.473 0 0 1-1.628 2.237c-.776.573-1.742.86-2.9.86-.942 0-1.79-.21-2.541-.627a4.68 4.68 0 0 1-1.754-1.79c-.418-.776-.627-1.67-.627-2.685 0-1.014.203-1.903.609-2.667a4.403 4.403 0 0 1 1.736-1.79c.752-.417 1.61-.626 2.577-.626.93 0 1.76.203 2.488.608a4.285 4.285 0 0 1 1.7 1.719c.406.728.609 1.569.609 2.523Zm-2.13-.644c-.012-.752-.28-1.354-.805-1.808-.525-.453-1.176-.68-1.951-.68-.704 0-1.307.227-1.808.68-.501.442-.8 1.044-.895 1.808h5.459Zm6.178-7.428v13.245h-2.04V4.88h2.04Z"/></svg>